<svg id="Layer_1" data-name="Layer 1" xmlns="http://www.w3.org/2000/svg" viewBox="0 0 302.03 315.94"><defs><style>.cls-1,.cls-2{fill:#231f20;}.cls-1,.cls-3{stroke:#fff;stroke-miterlimit:10;stroke-width:2px;}.cls-3{fill:none;}</style></defs><path class="cls-1" d="M116.22,529.75a17.3,17.3,0,0,0,8-1.92,22.94,22.94,0,0,0,6.48-4.94,25.24,25.24,0,0,0,4.48-7,23.91,23.91,0,0,0,2-8.21,14.84,14.84,0,0,0-4.28-10.84,14,14,0,0,0-10.36-4.26,16.77,16.77,0,0,0-7.69,1.92,20.07,20.07,0,0,0-6.34,5.07,29,29,0,0,0-4.36,7.08,19.58,19.58,0,0,0-1.69,8q0,6.83,3.75,11A12.79,12.79,0,0,0,116.22,529.75Z" transform="translate(-15.76 -471.57)"/><path class="cls-2" d="M315.37,492.68a28.93,28.93,0,0,0-5.91-10.23,32.37,32.37,0,0,0-11.06-8q-6.82-3.11-16.69-1.18-12.27,2.4-34.08,11.79T198.8,505.33a29.45,29.45,0,0,0,2.21-7,14.67,14.67,0,0,0-2.63-9.66,21.41,21.41,0,0,0-7.89-6.66,32.65,32.65,0,0,0-11.42-3.11,44.88,44.88,0,0,0-13.15.68c-.4.08-.92.53-1.55,1.35a4,4,0,0,0-1,1.82,6,6,0,0,0,1.6,4.14q1.68,2,1.46,6.83a24.43,24.43,0,0,1-.77,3.71c-.49,1.87-1.13,4-1.93,6.46s-1.7,5.07-2.72,7.93-2,5.67-2.87,8.4A358.52,358.52,0,0,1,110,532.87a36,36,0,0,1-9,.38q-5.15-.35-7.44-5.45a5.65,5.65,0,0,0-3.54-.49c-1.38.26-2.08,1-2.09,2.14a28.82,28.82,0,0,0,3.41,12.48,19.46,19.46,0,0,0,7.36,7.68q5.05,3.17,14.1,1.5a148.9,148.9,0,0,0,17.12-4.48q10.13-3.2,22.51-7.86Q144.77,563,137.9,583.23q-4.62,13.72-8.46,25.84a148.22,148.22,0,0,1-14.26,23.22q-8.59,11.38-17.65,23.94a55.41,55.41,0,0,1,1.83-11.4q1.78-7.32,4.46-16.1t5.83-18.41q3.18-9.63,5.94-18.34t4.67-15.51a46.56,46.56,0,0,0,2-10.06,6.55,6.55,0,0,0-2-4.62,18.24,18.24,0,0,0-5.4-3.87,25.36,25.36,0,0,0-7.21-2.2,23.12,23.12,0,0,0-7.7.1,21.85,21.85,0,0,0-4.08,1q-7.5,20.64-12.2,37.34t-8.25,32.39q-3.54,15.7-6.59,31.28t-7.05,33.85q-7,5.1-15.23,12.23a121,121,0,0,0-14.84,15.38,83.27,83.27,0,0,0-10.95,17.59,43.09,43.09,0,0,0-3.92,19.54,32.74,32.74,0,0,0,2.29,10.7,34,34,0,0,0,6,10.1,29.63,29.63,0,0,0,9.13,7.18,19.82,19.82,0,0,0,11.66,1.89q6.95-.86,13.34-10.17a120.42,120.42,0,0,0,12.07-23.29,307.6,307.6,0,0,0,10.43-30.35q4.8-16.42,8.21-30.94,4.39-4.74,12.72-14.92,6.61-8.07,13.24-16.93a105.39,105.39,0,0,0-1.48,14.7,83,83,0,0,0,.63,12.69,44.74,44.74,0,0,0,2.68,10.93,19.2,19.2,0,0,0,4.88,7.4,8.32,8.32,0,0,0,7,2.09q4-.57,10-6.45a144,144,0,0,0,12.68-14.61q6.72-8.72,13.6-18.85,5.1-7.5,9.48-14.41-.24,20.84,7,32.57,8.1,13.37,29.53,10.33,8-1.14,16.59-6.77a99,99,0,0,0,16.68-14,181.05,181.05,0,0,0,15.73-18.68,232.15,232.15,0,0,0,13.91-21.13q2-3.69,4.36-7.74t4.38-7.76q2-3.7,3.33-6.68a17.87,17.87,0,0,0,1.49-4.85,8.74,8.74,0,0,0-.91-5.38,14.75,14.75,0,0,0-3-3.8,16.48,16.48,0,0,0-4.65-2.91q-3.43,6.4-9.77,17.22T256.15,635a166.5,166.5,0,0,1-15.28,18.51q-7.73,8-14.25,9c-4.73.72-8.52-1.89-11.4-7.79s-3.79-16.36-2.67-31.41a170.48,170.48,0,0,1,5-29.92,265.32,265.32,0,0,1,8.76-27.9,169.22,169.22,0,0,1,9.36-20.85c3-5.48,5.12-8.34,6.29-8.55q2.33-.42,5,3a40,40,0,0,1,4.82,8.23q-1.58,4.83-3.9,11.92A53,53,0,0,0,245.28,570a17.68,17.68,0,0,0,.93,8.48,15,15,0,0,0,3.45,5.18,12,12,0,0,0,4.08,2.65,7,7,0,0,0,2.59.62,2.28,2.28,0,0,0,1.5-1.16,1.68,1.68,0,0,0,.37-1q.24-2.47,4.39-9.28T271.74,561q5-7.74,9.14-14.9t4.51-10.59a8.82,8.82,0,0,0-1.66-5.81,28.44,28.44,0,0,0-5-5.66,25.12,25.12,0,0,0-6.46-4.14,10.32,10.32,0,0,0-5.79-1.06,4.6,4.6,0,0,0-3.38,2.3q-1,1.86-2.73,4.61a23,23,0,0,0-9.44-6.9q-5.83-2.4-14.95-.69-9.41,1.75-17.44,10.77a108.2,108.2,0,0,0-14.76,21.92,205.16,205.16,0,0,0-11.92,28q-5.16,15.1-8.63,28.84-.65,2.56-1.23,5c-.51.94-1.69,2.91-3.57,5.94q-4.12,6.66-9.66,14.7t-10.92,14.84c-3.59,4.53-6.2,6.91-7.86,7.17-.92.14-1.44-.37-1.57-1.53a29.27,29.27,0,0,1-.09-4.44q.3-7.15,4.68-22.11t10.9-32.86q6.54-17.92,14-36.54T191.2,524.4q21.42-7.9,42.74-14.94a306,306,0,0,1,38.5-10.32,86.74,86.74,0,0,1,13.47-1.49,92.45,92.45,0,0,1,12,.34,22.38,22.38,0,0,1,8.4,2.24c2.08,1.15,3,2.45,2.86,3.92-.07.62.23.93.91.9a11.24,11.24,0,0,0,1.59-.14,9.93,9.93,0,0,0,3-1.34,3.94,3.94,0,0,0,2.08-3C317,498.89,316.49,496.27,315.37,492.68Zm-260.29,234q-1.95,6.48-4.4,13.17a69.74,69.74,0,0,1-5.4,11.69c-2,3.33-3.91,5.12-5.84,5.37a6.93,6.93,0,0,1-5.29-1.46,6.76,6.76,0,0,1-2.49-5.55q-.06-2.86,2.49-7.37a78.13,78.13,0,0,1,6.34-9.35,84.77,84.77,0,0,1,8.42-9.24,83.68,83.68,0,0,1,8.64-7.3A75.06,75.06,0,0,1,55.08,726.68Z" transform="translate(-15.76 -471.57)"/><path class="cls-3" d="M315.37,492.68a28.93,28.93,0,0,0-5.91-10.23,32.37,32.37,0,0,0-11.06-8q-6.82-3.11-16.69-1.18-12.27,2.4-34.08,11.79T198.8,505.33a29.45,29.45,0,0,0,2.21-7,14.67,14.67,0,0,0-2.63-9.66,21.41,21.41,0,0,0-7.89-6.66,32.65,32.65,0,0,0-11.42-3.11,44.88,44.88,0,0,0-13.15.68c-.4.08-.92.53-1.55,1.35a4,4,0,0,0-1,1.82,6,6,0,0,0,1.6,4.14q1.68,2,1.46,6.83a24.43,24.43,0,0,1-.77,3.71c-.49,1.87-1.13,4-1.93,6.46s-1.7,5.07-2.72,7.93-2,5.67-2.87,8.4A358.52,358.52,0,0,1,110,532.87a36,36,0,0,1-9,.38q-5.15-.35-7.44-5.45a5.65,5.65,0,0,0-3.54-.49c-1.38.26-2.08,1-2.09,2.14a28.82,28.82,0,0,0,3.41,12.48,19.46,19.46,0,0,0,7.36,7.68q5.05,3.17,14.1,1.5a148.9,148.9,0,0,0,17.12-4.48q10.13-3.2,22.51-7.86Q144.77,563,137.9,583.23q-4.62,13.72-8.46,25.84a148.22,148.22,0,0,1-14.26,23.22q-8.59,11.38-17.65,23.94a55.41,55.41,0,0,1,1.83-11.4q1.78-7.32,4.46-16.1t5.83-18.41q3.18-9.63,5.94-18.34t4.67-15.51a46.56,46.56,0,0,0,2-10.06,6.55,6.55,0,0,0-2-4.62,18.24,18.24,0,0,0-5.4-3.87,25.36,25.36,0,0,0-7.21-2.2,23.12,23.12,0,0,0-7.7.1,21.85,21.85,0,0,0-4.08,1q-7.5,20.64-12.2,37.34t-8.25,32.39q-3.54,15.7-6.59,31.28t-7.05,33.85q-7,5.1-15.23,12.23a121,121,0,0,0-14.84,15.38,83.27,83.27,0,0,0-10.95,17.59,43.09,43.09,0,0,0-3.92,19.54,32.74,32.74,0,0,0,2.29,10.7,34,34,0,0,0,6,10.1,29.63,29.63,0,0,0,9.13,7.18,19.82,19.82,0,0,0,11.66,1.89q6.95-.86,13.34-10.17a120.42,120.42,0,0,0,12.07-23.29,307.6,307.6,0,0,0,10.43-30.35q4.8-16.42,8.21-30.94,4.39-4.74,12.72-14.92,6.61-8.07,13.24-16.93a105.39,105.39,0,0,0-1.48,14.7,83,83,0,0,0,.63,12.69,44.74,44.74,0,0,0,2.68,10.93,19.2,19.2,0,0,0,4.88,7.4,8.32,8.32,0,0,0,7,2.09q4-.57,10-6.45a144,144,0,0,0,12.68-14.61q6.72-8.72,13.6-18.85,5.1-7.5,9.48-14.41-.24,20.84,7,32.57,8.1,13.37,29.53,10.33,8-1.14,16.59-6.77a99,99,0,0,0,16.68-14,181.05,181.05,0,0,0,15.73-18.68,232.15,232.15,0,0,0,13.91-21.13q2-3.69,4.36-7.74t4.38-7.76q2-3.7,3.33-6.68a17.87,17.87,0,0,0,1.49-4.85,8.74,8.74,0,0,0-.91-5.38,14.75,14.75,0,0,0-3-3.8,16.48,16.48,0,0,0-4.65-2.91q-3.43,6.4-9.77,17.22T256.15,635a166.5,166.5,0,0,1-15.28,18.51q-7.73,8-14.25,9c-4.73.72-8.52-1.89-11.4-7.79s-3.79-16.36-2.67-31.41a170.48,170.48,0,0,1,5-29.92,265.32,265.32,0,0,1,8.76-27.9,169.22,169.22,0,0,1,9.36-20.85c3-5.48,5.12-8.34,6.29-8.55q2.33-.42,5,3a40,40,0,0,1,4.82,8.23q-1.58,4.83-3.9,11.92A53,53,0,0,0,245.28,570a17.68,17.68,0,0,0,.93,8.48,15,15,0,0,0,3.45,5.18,12,12,0,0,0,4.08,2.65,7,7,0,0,0,2.59.62,2.28,2.28,0,0,0,1.5-1.16,1.68,1.68,0,0,0,.37-1q.24-2.47,4.39-9.28T271.74,561q5-7.74,9.14-14.9t4.51-10.59a8.82,8.82,0,0,0-1.66-5.81,28.44,28.44,0,0,0-5-5.66,25.12,25.12,0,0,0-6.46-4.14,10.32,10.32,0,0,0-5.79-1.06,4.6,4.6,0,0,0-3.38,2.3q-1,1.86-2.73,4.61a23,23,0,0,0-9.44-6.9q-5.83-2.4-14.95-.69-9.41,1.75-17.44,10.77a108.2,108.2,0,0,0-14.76,21.92,205.16,205.16,0,0,0-11.92,28q-5.16,15.1-8.63,28.84-.65,2.56-1.23,5c-.51.94-1.69,2.91-3.57,5.94q-4.12,6.66-9.66,14.7t-10.92,14.84c-3.59,4.53-6.2,6.91-7.86,7.17-.92.14-1.44-.37-1.57-1.53a29.27,29.27,0,0,1-.09-4.44q.3-7.15,4.68-22.11t10.9-32.86q6.54-17.92,14-36.54T191.2,524.4q21.42-7.9,42.74-14.94a306,306,0,0,1,38.5-10.32,86.74,86.74,0,0,1,13.47-1.49,92.45,92.45,0,0,1,12,.34,22.38,22.38,0,0,1,8.4,2.24c2.08,1.15,3,2.45,2.86,3.92-.07.62.23.93.91.9a11.24,11.24,0,0,0,1.59-.14,9.93,9.93,0,0,0,3-1.34,3.94,3.94,0,0,0,2.08-3C317,498.89,316.49,496.27,315.37,492.68Zm-260.29,234q-1.95,6.48-4.4,13.17a69.74,69.74,0,0,1-5.4,11.69c-2,3.33-3.91,5.12-5.84,5.37a6.93,6.93,0,0,1-5.29-1.46,6.76,6.76,0,0,1-2.49-5.55q-.06-2.86,2.49-7.37a78.13,78.13,0,0,1,6.34-9.35,84.77,84.77,0,0,1,8.42-9.24,83.68,83.68,0,0,1,8.64-7.3A75.06,75.06,0,0,1,55.08,726.68Z" transform="translate(-15.76 -471.57)"/></svg>